<mxfile host="app.diagrams.net" modified="2022-06-26T01:34:56.708Z" agent="5.0 (Windows NT 10.0; Win64; x64) AppleWebKit/537.36 (KHTML, like Gecko) Chrome/102.0.0.0 Safari/537.36" etag="zLSfvsieCbl6qXZ54NJr" version="20.0.3" type="github">
  <diagram id="rcHD5uTQSCNYS3-sTs--" name="Page-1">
    <mxGraphModel dx="1038" dy="499" grid="0" gridSize="10" guides="1" tooltips="1" connect="1" arrows="1" fold="1" page="1" pageScale="1" pageWidth="1169" pageHeight="827" math="0" shadow="0">
      <root>
        <mxCell id="0" />
        <mxCell id="1" parent="0" />
        <mxCell id="2E6pCZSPjPpuu23mWzGu-21" value="" style="group" parent="1" vertex="1" connectable="0">
          <mxGeometry x="58" y="17" width="1064" height="760" as="geometry" />
        </mxCell>
        <mxCell id="2E6pCZSPjPpuu23mWzGu-7" value="" style="edgeStyle=orthogonalEdgeStyle;rounded=0;orthogonalLoop=1;jettySize=auto;html=1;" parent="2E6pCZSPjPpuu23mWzGu-21" source="2E6pCZSPjPpuu23mWzGu-4" edge="1">
          <mxGeometry relative="1" as="geometry">
            <mxPoint x="275" y="366.0666666666666" as="targetPoint" />
          </mxGeometry>
        </mxCell>
        <mxCell id="2E6pCZSPjPpuu23mWzGu-4" value="Windows VM" style="sketch=0;aspect=fixed;pointerEvents=1;shadow=0;dashed=0;html=1;strokeColor=none;labelPosition=center;verticalLabelPosition=bottom;verticalAlign=top;align=center;fillColor=#00188D;shape=mxgraph.mscae.enterprise.windows_server" parent="2E6pCZSPjPpuu23mWzGu-21" vertex="1">
          <mxGeometry x="97" y="311" width="86" height="110.26" as="geometry" />
        </mxCell>
        <mxCell id="SK8gz98vPubrYjhcEStJ-1" style="edgeStyle=orthogonalEdgeStyle;rounded=0;orthogonalLoop=1;jettySize=auto;html=1;" parent="2E6pCZSPjPpuu23mWzGu-21" source="2E6pCZSPjPpuu23mWzGu-8" target="2E6pCZSPjPpuu23mWzGu-9" edge="1">
          <mxGeometry relative="1" as="geometry" />
        </mxCell>
        <mxCell id="2E6pCZSPjPpuu23mWzGu-8" value="SQL Database" style="aspect=fixed;perimeter=ellipsePerimeter;html=1;align=center;shadow=0;dashed=0;spacingTop=3;image;image=img/lib/active_directory/database_server.svg;" parent="2E6pCZSPjPpuu23mWzGu-21" vertex="1">
          <mxGeometry x="286.84999999999997" y="79" width="81.31" height="99.16" as="geometry" />
        </mxCell>
        <mxCell id="2E6pCZSPjPpuu23mWzGu-9" value="ART Scheduled &lt;br&gt;Job" style="outlineConnect=0;dashed=0;verticalLabelPosition=bottom;verticalAlign=top;align=center;html=1;shape=mxgraph.aws3.android;fillColor=#115193;gradientColor=none;" parent="2E6pCZSPjPpuu23mWzGu-21" vertex="1">
          <mxGeometry x="274" y="311" width="107" height="127.87" as="geometry" />
        </mxCell>
        <mxCell id="2E6pCZSPjPpuu23mWzGu-11" value="Shared Folder" style="sketch=0;aspect=fixed;pointerEvents=1;shadow=0;dashed=0;html=1;strokeColor=none;labelPosition=center;verticalLabelPosition=bottom;verticalAlign=top;align=center;fillColor=#00188D;shape=mxgraph.mscae.enterprise.shared_folder" parent="2E6pCZSPjPpuu23mWzGu-21" vertex="1">
          <mxGeometry x="278" y="572" width="99" height="115.12" as="geometry" />
        </mxCell>
        <mxCell id="2E6pCZSPjPpuu23mWzGu-12" value="Renewal Letters" style="edgeStyle=orthogonalEdgeStyle;rounded=0;orthogonalLoop=1;jettySize=auto;html=1;" parent="2E6pCZSPjPpuu23mWzGu-21" source="2E6pCZSPjPpuu23mWzGu-9" target="2E6pCZSPjPpuu23mWzGu-11" edge="1">
          <mxGeometry relative="1" as="geometry" />
        </mxCell>
        <mxCell id="2E6pCZSPjPpuu23mWzGu-13" value="" style="shape=image;html=1;verticalLabelPosition=bottom;verticalAlign=top;imageAspect=0;image=img/clipart/Gear_128x128.png" parent="2E6pCZSPjPpuu23mWzGu-21" vertex="1">
          <mxGeometry x="254" y="383" width="50" height="60" as="geometry" />
        </mxCell>
        <mxCell id="SK8gz98vPubrYjhcEStJ-4" style="edgeStyle=orthogonalEdgeStyle;rounded=0;orthogonalLoop=1;jettySize=auto;html=1;" parent="2E6pCZSPjPpuu23mWzGu-21" source="2E6pCZSPjPpuu23mWzGu-17" target="SK8gz98vPubrYjhcEStJ-2" edge="1">
          <mxGeometry relative="1" as="geometry" />
        </mxCell>
        <mxCell id="2E6pCZSPjPpuu23mWzGu-17" value="GENie API" style="whiteSpace=wrap;html=1;aspect=fixed;" parent="2E6pCZSPjPpuu23mWzGu-21" vertex="1">
          <mxGeometry x="583" y="291.43" width="167" height="167" as="geometry" />
        </mxCell>
        <mxCell id="2E6pCZSPjPpuu23mWzGu-18" style="edgeStyle=orthogonalEdgeStyle;rounded=0;orthogonalLoop=1;jettySize=auto;html=1;" parent="2E6pCZSPjPpuu23mWzGu-21" source="2E6pCZSPjPpuu23mWzGu-9" target="2E6pCZSPjPpuu23mWzGu-17" edge="1">
          <mxGeometry relative="1" as="geometry" />
        </mxCell>
        <mxCell id="2E6pCZSPjPpuu23mWzGu-19" value="&lt;font size=&quot;1&quot; style=&quot;&quot;&gt;&lt;b style=&quot;font-size: 22px;&quot;&gt;ART Process - Legacy Architecture&lt;/b&gt;&lt;/font&gt;" style="text;html=1;align=center;verticalAlign=middle;resizable=0;points=[];autosize=1;strokeColor=none;fillColor=none;" parent="2E6pCZSPjPpuu23mWzGu-21" vertex="1">
          <mxGeometry x="332" width="377" height="22" as="geometry" />
        </mxCell>
        <mxCell id="2E6pCZSPjPpuu23mWzGu-20" value="Corporate data center" style="points=[[0,0],[0.25,0],[0.5,0],[0.75,0],[1,0],[1,0.25],[1,0.5],[1,0.75],[1,1],[0.75,1],[0.5,1],[0.25,1],[0,1],[0,0.75],[0,0.5],[0,0.25]];outlineConnect=0;gradientColor=none;html=1;whiteSpace=wrap;fontSize=12;fontStyle=0;container=1;pointerEvents=0;collapsible=0;recursiveResize=0;shape=mxgraph.aws4.group;grIcon=mxgraph.aws4.group_corporate_data_center;strokeColor=#5A6C86;fillColor=none;verticalAlign=top;align=left;spacingLeft=30;fontColor=#5A6C86;dashed=0;" parent="2E6pCZSPjPpuu23mWzGu-21" vertex="1">
          <mxGeometry y="48.16" width="1064" height="711.84" as="geometry" />
        </mxCell>
        <mxCell id="SK8gz98vPubrYjhcEStJ-2" value="BPMi" style="shape=cylinder3;whiteSpace=wrap;html=1;boundedLbl=1;backgroundOutline=1;size=15;" parent="2E6pCZSPjPpuu23mWzGu-21" vertex="1">
          <mxGeometry x="845" y="297.35" width="89" height="155.16" as="geometry" />
        </mxCell>
      </root>
    </mxGraphModel>
  </diagram>
</mxfile>
